<svg xmlns="http://www.w3.org/2000/svg" viewBox="0 0 724.82 546.26"><defs><style>.cls-1,.cls-3,.cls-4{fill:#fff;}.cls-1,.cls-18{fill-rule:evenodd;}.cls-2{opacity:0.63;}.cls-3{opacity:0.7;isolation:isolate;}.cls-5{opacity:0.25;}.cls-6{fill:#17e59e;}.cls-7{fill:#e00713;}.cls-8{fill:#ff9e01;}.cls-9{fill:#ed7715;}.cls-10{fill:#21243d;}.cls-11{fill:#ff9494;}.cls-12{fill:#fdb4b1;}.cls-13{fill:#94163d;}.cls-14{fill:#35393a;}.cls-15{fill:#93131a;}.cls-16{opacity:0.42;}.cls-17{fill:#fe5923;}.cls-18,.cls-21{fill:#fce63d;}.cls-19{fill:#6f0f14;}.cls-20{fill:#a94248;}</style></defs><g id="Layer_2" data-name="Layer 2"><g id="Layer_1-2" data-name="Layer 1"><path class="cls-1" d="M229.66,436a8.16,8.16,0,1,0,8.16-8.15A8.15,8.15,0,0,0,229.66,436Zm2.72,0a5.44,5.44,0,1,1,5.44,5.43A5.43,5.43,0,0,1,232.38,436Z"/><path class="cls-1" d="M556.53,472.12a8.16,8.16,0,1,0,8.15-8.15A8.15,8.15,0,0,0,556.53,472.12Zm2.72,0a5.43,5.43,0,0,1,5.43-5.43h0a5.43,5.43,0,1,1-5.43,5.42Z"/><path class="cls-1" d="M339.26,478.91a8.16,8.16,0,1,0,8.15-8.15A8.15,8.15,0,0,0,339.26,478.91Zm2.72,0a5.44,5.44,0,1,1,5.43,5.44A5.43,5.43,0,0,1,342,478.91Z"/><path class="cls-1" d="M26.55,232.82a8.16,8.16,0,1,0,8.16-8.15A8.15,8.15,0,0,0,26.55,232.82Zm2.72,0a5.43,5.43,0,0,1,5.44-5.43h0a5.43,5.43,0,1,1-5.44,5.42Z"/><path class="cls-1" d="M632.55,253a8.15,8.15,0,1,0,8.15-8.15A8.15,8.15,0,0,0,632.55,253Zm2.71,0a5.44,5.44,0,1,1,5.44,5.43A5.45,5.45,0,0,1,635.26,253Z"/><path class="cls-1" d="M260.4,68.46a8.16,8.16,0,1,0,8.16-8.15A8.15,8.15,0,0,0,260.4,68.46Zm2.72,0A5.44,5.44,0,0,1,268.56,63h0a5.43,5.43,0,1,1-5.44,5.43Z"/><path class="cls-1" d="M118.34,439a8.16,8.16,0,1,0,8.15-8.15A8.15,8.15,0,0,0,118.34,439Zm2.72,0a5.44,5.44,0,1,1,5.43,5.43A5.43,5.43,0,0,1,121.06,439Z"/><g class="cls-2"><path class="cls-3" d="M504.52,353.89H299.7v53.93H504.52a27,27,0,1,0,0-53.93Z"/><path class="cls-4" d="M94.88,353.89a27,27,0,1,0,0,53.93H299.7V353.89Z"/></g><g class="cls-5"><path class="cls-4" d="M722.43,112.17H607.61a2.42,2.42,0,0,0-2.4,2.4v98.79l30.41-30.43h86.81a2.4,2.4,0,0,0,2.39-2.4v-66a2.4,2.4,0,0,0-2.39-2.4Z"/></g><rect class="cls-6" x="618.34" y="130.31" width="93.36" height="5.86" rx="2.93"/><rect class="cls-6" x="618.34" y="144.28" width="82.65" height="5.86" rx="2.93"/><rect class="cls-6" x="618.34" y="158.25" width="65.92" height="5.86" rx="2.93"/><g class="cls-5"><path class="cls-4" d="M218.09,86.47H159.75a1.23,1.23,0,0,0-1.22,1.22v50.19L174,122.43h44.11a1.22,1.22,0,0,0,1.22-1.21V87.69A1.22,1.22,0,0,0,218.09,86.47Z"/></g><path class="cls-4" d="M166.69,95.69h44.46a1.49,1.49,0,0,1,1.49,1.48h0a1.49,1.49,0,0,1-1.49,1.49H166.69a1.49,1.49,0,0,1-1.49-1.49h0A1.49,1.49,0,0,1,166.69,95.69Z"/><path class="cls-4" d="M166.69,102.79h39a1.49,1.49,0,0,1,1.49,1.48h0a1.49,1.49,0,0,1-1.49,1.49h-39a1.49,1.49,0,0,1-1.49-1.49h0A1.49,1.49,0,0,1,166.69,102.79Z"/><path class="cls-4" d="M166.69,109.89h30.52a1.48,1.48,0,0,1,1.48,1.48h0a1.49,1.49,0,0,1-1.48,1.49H166.69a1.49,1.49,0,0,1-1.49-1.49h0A1.49,1.49,0,0,1,166.69,109.89Z"/><g class="cls-5"><path class="cls-4" d="M205.19,13.9H128.37a1.64,1.64,0,0,0-1.63,1.64V81.6l20.34-20.36h58.11a1.62,1.62,0,0,0,1.63-1.6V15.51A1.63,1.63,0,0,0,205.19,13.9Z"/></g><path class="cls-6" d="M137.51,26h58.54a2,2,0,0,1,2,2h0a2,2,0,0,1-2,2H137.51a2,2,0,0,1-2-2h0A2,2,0,0,1,137.51,26Z"/><path class="cls-6" d="M137.51,35.39h51.37a2,2,0,0,1,2,2h0a2,2,0,0,1-2,2H137.51a2,2,0,0,1-2-2h0A2,2,0,0,1,137.51,35.39Z"/><path class="cls-6" d="M137.51,44.73h40.18a2,2,0,0,1,2,2h0a2,2,0,0,1-2,2H137.51a2,2,0,0,1-2-2h0A2,2,0,0,1,137.51,44.73Z"/><g class="cls-5"><path class="cls-4" d="M487,34.48h97.16a2,2,0,0,1,2,2v83.58L560.42,94.35H487a2,2,0,0,1-2-2V36.51A2,2,0,0,1,487,34.48Z"/></g><rect class="cls-7" x="496.06" y="49.82" width="78.99" height="4.96" rx="2.48"/><rect class="cls-8" x="505.11" y="61.64" width="69.94" height="4.96" rx="2.48"/><rect class="cls-7" x="519.28" y="73.46" width="55.78" height="4.96" rx="2.48"/><g class="cls-5"><rect class="cls-4" x="314.41" width="88.91" height="150.55" rx="5.54"/></g><path class="cls-6" d="M353.16,117.9a13,13,0,1,0-20.29,10.78,7.61,7.61,0,0,1,14.57,0A13,13,0,0,0,353.16,117.9Z"/><path class="cls-4" d="M340.15,123.28a7.61,7.61,0,0,0-7.28,5.4,13,13,0,0,0,14.57,0A7.62,7.62,0,0,0,340.15,123.28Z"/><path class="cls-4" d="M340.15,121.77a5,5,0,1,0-5-5A5,5,0,0,0,340.15,121.77Z"/><path class="cls-8" d="M353.16,82.87a13,13,0,1,0-20.29,10.78,7.61,7.61,0,0,1,14.57,0A13,13,0,0,0,353.16,82.87Z"/><path class="cls-4" d="M340.15,88.26a7.6,7.6,0,0,0-7.28,5.39,13,13,0,0,0,14.57,0A7.6,7.6,0,0,0,340.15,88.26Z"/><path class="cls-4" d="M340.15,86.74a5,5,0,1,0-5-5A5,5,0,0,0,340.15,86.74Z"/><rect class="cls-8" x="321.5" y="8.36" width="74.73" height="7.43" rx="3.49"/><rect class="cls-7" x="359.95" y="115.42" width="30.87" height="4.96" rx="2.48"/><path class="cls-6" d="M353.16,48a13,13,0,1,0-20.29,10.78,7.61,7.61,0,0,1,14.57,0A13,13,0,0,0,353.16,48Z"/><path class="cls-4" d="M340.15,53.35a7.61,7.61,0,0,0-7.28,5.39,13,13,0,0,0,14.57,0A7.61,7.61,0,0,0,340.15,53.35Z"/><path class="cls-4" d="M340.15,51.85a5,5,0,1,0-5-5A5,5,0,0,0,340.15,51.85Z"/><rect class="cls-7" x="359.95" y="45.5" width="30.87" height="4.96" rx="2.48"/><rect class="cls-7" x="359.95" y="79.28" width="30.87" height="4.96" rx="2.48"/><g class="cls-5"><path class="cls-4" d="M10.48,93.69H125.31a2.4,2.4,0,0,1,2.39,2.4v98.78L97.3,164.44H10.48A2.4,2.4,0,0,1,8.09,162V96.09A2.4,2.4,0,0,1,10.48,93.69Z"/></g><path class="cls-7" d="M94.85,137.69a9.32,9.32,0,1,0-9.31-9.31A9.31,9.31,0,0,0,94.85,137.69Z"/><path class="cls-7" d="M67.89,137.69a9.32,9.32,0,1,0-9.3-9.31A9.31,9.31,0,0,0,67.89,137.69Z"/><path class="cls-7" d="M40.94,137.69a9.32,9.32,0,1,0-9.3-9.31A9.31,9.31,0,0,0,40.94,137.69Z"/><path class="cls-3" d="M640.75,402s46.55,34.3,52.07,30.83S716.1,385,712,383s-24.21,9.83-24.21,9.83l-30-15.91Z"/><path class="cls-9" d="M462.8,304.3l58.42-24.08a8.83,8.83,0,0,1,8.94,1.32c3.94,3.1,10.15,7.8,16.11,11.54,9.78,6.12,141.91,80.08,141.91,80.08L657,420.48S529.38,325.74,521.57,330.1c-9.24,5.16-89.86,24.86-89.86,24.86s-37.17,7.88-19.92-58.68"/><path class="cls-8" d="M394.44,372.68l66,36.21-46,137.28,46.49.09s41.67-156.95,39.06-162.84c-1.3-2.93-56.67-38.52-85.27-66.84-15.56-15.42-47.95-13.4-49.47-6.52-7.24,32.76,16.34,56.16,29.13,62.65"/><path class="cls-10" d="M527.07,244.35a3.81,3.81,0,0,1-3.05-6.08l33.6-45.15a3.81,3.81,0,0,1,6.1,4.55l-33.6,45.14A3.78,3.78,0,0,1,527.07,244.35Z"/><path class="cls-11" d="M462.67,155.53s-2.79-6.95-4.57-2.67-1.5,8.12.42,8.35,3.77-2.72,3.77-2.72Z"/><path class="cls-11" d="M480.65,179.42l-19.71,21.24-16.65,12.45-11.62-14.72,9.47-11.46,19.55-30.08Z"/><path class="cls-12" d="M500.08,147c.46,4.35-3.81,7-5,11.33-1.38,5.15-2.57,14.13-3.31,22.23-.28,3.06-1.29,11.22-3.74,14.13-1.69,2-4.18-4.79-5.35-2.84-3.68,6.12-13,12.75-14.8,12.15-3.47-1.14-5.74-8.45-6.85-11.41a41.25,41.25,0,0,1-2.45-18.25c.59-7.17,1-14.7,3.35-21.55,1.69-5,4.19-11.91,6.71-16.55,2.43-4.46,8.75,1.4,13.09-.28,7.15-2.75,13.23,1.52,16.63,7.44C499.93,146.23,500,146.76,500.08,147Z"/><path class="cls-13" d="M473.35,191.76a10.25,10.25,0,0,0,4.28,1,.37.37,0,0,0,.33-.37.39.39,0,0,0-.33-.38s-4.12,0-6-2.66a5.35,5.35,0,0,1-1-5,.37.37,0,0,0,0-.29.36.36,0,0,0-.2-.2.34.34,0,0,0-.28,0,.37.37,0,0,0-.21.2,6.06,6.06,0,0,0,1.09,5.68A6.4,6.4,0,0,0,473.35,191.76Z"/><path class="cls-10" d="M507.22,154.58a11.3,11.3,0,0,1-2.34,4.11c-1.74,1.89-4.12,1.35-5.81-.25-2.81-2.66-3.92-6.86-7-9.17a3.07,3.07,0,0,0-1.75-.75,4.74,4.74,0,0,0-2.42,1c-4.49,2.72-10.2,2.08-15.28.81a6.25,6.25,0,0,0-3.14-.27c-1.74.44-2.72,2.23-3.86,3.61s-3.37,2.43-4.64,1.16a3.94,3.94,0,0,1-.86-2.18l-.81-4.66c-.65-3.62-1-8,1.92-10.27.71-.54,1.54-.88,2.25-1.41,2.38-1.77,2.9-5.19,5-7.29,2.39-2.38,6.42-2.68,9.61-2.55a3.79,3.79,0,0,1,2.44.74c.76.69.94,1.91,1.78,2.5a2.39,2.39,0,0,0,2.13.2c1.9-.63,3.31-2.4,5-3.4,3.56-2.12,5.58-.06,7.69,2.58a66.86,66.86,0,0,0,5.37,5.91c2.31,2.27,4.78,3.58,5.28,7.1C508.29,145.84,508.56,150.63,507.22,154.58Z"/><path class="cls-14" d="M484.56,157.63l.1,0a.25.25,0,0,0,.31-.16.23.23,0,0,0,0-.2,8.58,8.58,0,0,1,1.67-.37,3.16,3.16,0,0,1,3.49,1.92.26.26,0,0,0,.2.19.25.25,0,0,0,.25-.1.26.26,0,0,0,0-.27,3.73,3.73,0,0,0-4-2.23c-2,.32-2.17.54-2.21.82A.36.36,0,0,0,484.56,157.63Z"/><path class="cls-14" d="M487.22,161.71a1.26,1.26,0,0,0-.69-1.53,1.28,1.28,0,0,0-1.77,1.33c0,.91,1.24,1.81,1.74,1.63S487.72,162.24,487.22,161.71Z"/><path class="cls-12" d="M534.2,251.14s15.38-7.61,24.82-15.8,8.56-13.64,5.78-13l-2.76.67s3.06-3,.85-3.73a6.15,6.15,0,0,0-3.22-.47s2.45-3-.33-3.56l-2.78-.55s2-5.23-1.93-3.2-21.06,15.76-23,13.46-1.13-6.62,2.56-9.37,3.38-9.17-1.08-6.47-8.24,5.91-9.4,10.73-.14,13.56-.14,13.56l-26.67,17.71,8.56,19Z"/><path class="cls-15" d="M449.59,207.63c7.26,4.32,7.13,18.63,7.5,26,1,19.19-4.48,37.72-8.88,56.24C444.15,307,441.9,315,441.88,315c-2.14,6.81-58.46-5.69-73.62-2.25a2.47,2.47,0,0,1-2.2-.61,2.44,2.44,0,0,1-.75-2.15c2.72-18.72,12.32-80.81,23-96.67C401,194.61,436,189.11,436,189.11S439.32,201.53,449.59,207.63Z"/><path class="cls-7" d="M433.35,202.13s19.78,71.49,26.24,72.27,48.76-33,51.3-33.69,26.26,27.54,19.78,29.3-77.34,53.17-87.47,51S410,249,407.67,237.49,424.05,184.49,433.35,202.13Z"/><path class="cls-10" d="M200,147.15s.26-23.68,27-14.79c18.61,6.2,22.07,21.44,44.06,73s69.58,29.64,69.58,29.64,16.46,9.72,0,23.5c-18.34,15.34-4.75,23.5-20.43,26.44s-25.74-4.76-25.74-4.76l-61-50.82"/><path class="cls-11" d="M227.61,168.42s2.56-7.07,4.48-2.83,1.78,8.06-.14,8.36-3.86-2.59-3.86-2.59Z"/><path class="cls-11" d="M205.81,182.89l20.3,20.66,16.73,12.17,9.93-14.08-9.85-11.14-20.79-29.18Z"/><path class="cls-12" d="M196.76,173.07c1,4,3.7,9,3.87,15.55.07,2.46-.64,4.81.31,8.95.46,2,4.44,0,5.43,1.41,3.1,4.55,11.5,8.82,13.27,8.1,3.37-1.36,6-7.6,7.25-10.17a33.08,33.08,0,0,0,3.52-15.25c-.1-5.79,0-11.9-1.79-17.22-1.29-3.85-3.2-9.24-5.3-12.71s-8.4,2.23-12.42,1.41c-6.6-1.37-9.62,2-13.24,7.28C196,162.85,196,169.67,196.76,173.07Z"/><path class="cls-13" d="M213.53,195a10,10,0,0,1-4.24,1.14.36.36,0,0,1-.37-.37.37.37,0,0,1,.37-.37s4.11-.12,5.94-2.87a5.3,5.3,0,0,0,.81-5,.38.38,0,0,1,0-.37.37.37,0,0,1,.64.06,6,6,0,0,1-.87,5.71A6.39,6.39,0,0,1,213.53,195Z"/><path class="cls-14" d="M205.94,173.58l-.09,0a.25.25,0,0,1-.27-.07.26.26,0,0,1,0-.28,9.56,9.56,0,0,0-1.68-.31,3.18,3.18,0,0,0-3.43,2,.21.21,0,0,1-.12.14.25.25,0,0,1-.19,0,.24.24,0,0,1-.15-.32,3.69,3.69,0,0,1,3.95-2.37c2,.24,2.22.49,2.24.74A.38.38,0,0,1,205.94,173.58Z"/><path class="cls-14" d="M203.42,177.75a1.26,1.26,0,0,1,.63-1.55,1.28,1.28,0,0,1,1.82,1.27c0,.91-1.18,1.84-1.68,1.69S202.94,178.3,203.42,177.75Z"/><g class="cls-16"><path class="cls-17" d="M217.07,184a4.78,4.78,0,1,0-4.79-4.78A4.78,4.78,0,0,0,217.07,184Z"/></g><path class="cls-18" d="M231.61,189.19c.67,1.53,1.49,2.34,2.3,2.34h.15c1.87-.27,2.35-4.67,1.8-8.7a19.86,19.86,0,0,0-1.47-5.61c-.75-1.64-1.6-2.44-2.46-2.33-1.86.26-2.31,4.67-1.8,8.7A20.22,20.22,0,0,0,231.61,189.19Zm.44-13.5h0c.32,0,.91.5,1.58,1.86a19.18,19.18,0,0,1,1.41,5.37c.6,4.65-.23,7.66-1.09,7.77-.35,0-1-.42-1.63-1.86a19.32,19.32,0,0,1-1.4-5.38C230.36,178.8,231.19,175.8,232.05,175.69Z"/><path class="cls-19" d="M235.05,210.05c-7.11,4.56-10.1,25.86-10.22,33.24-.32,19.21,17.65,34.56,22.68,52.92,4.64,17,7.3,15.38,7.32,15.46,2.72,7.73,49.82-27.32,51.51-17.28,0,0-14.92-47-28.19-65.32a239.52,239.52,0,0,0-29.26-32.74S245.11,203.61,235.05,210.05Z"/><path class="cls-11" d="M140.78,216.28s-8.7-12.71-15.26-12.09a145,145,0,0,0-17.9,3.1c-5.07,1.14-15,5.14-4.18,5.39,4.52.1,9,.11,13.56.12a26.52,26.52,0,0,0,5.23,12.27c5.15,7.11,2.77,3.08,11.8,6.9s19.57,8.73,19.57,8.73l2.53-8.82Z"/><path class="cls-20" d="M235,216.76c-11,12.5-37.64,42.19-42.4,41.79-6-.51-38.05-31.64-40.18-32.78s-29,20-23.48,22.82,52.67,41,62.24,41,57.3-39.8,61.55-49.84-1.25-42.64-13-28.39c0,0-1.81,2.11-4.74,5.43"/><path class="cls-10" d="M189.26,166.16a5.77,5.77,0,0,0,.89,2.76,3.22,3.22,0,0,0,3.16,1.49c2-.31,3.46-2.35,4.95-3.86a54,54,0,0,1,6.34-5.82c5.43-3.92,10.54-1.9,15.82,3.49,1.54,1.57,3.09,3.28,4.89,4.07a1.32,1.32,0,0,0,1.22.06c.6-.41.58-1.55.77-2.42.5-2.21,2.6-2.94,3.38-5s-.19-4.89-1.89-5.85a14.39,14.39,0,0,1-1.49-.7c-2.17-1.46-2-5.43-2.49-7.89a3.4,3.4,0,0,0-.37-1,1.29,1.29,0,0,0-2-.16c-.59.5-1,1.29-1.63,1.67-1.53.93-3.5-.73-5.22-.45a5.58,5.58,0,0,0-2.81,2c-1.05,1.09-2.28.78-3.56-.12a35.93,35.93,0,0,0-3-2.21,4.35,4.35,0,0,0-2.81-.5c-3.61.62-6.76,4.2-9.11,6.81A18.55,18.55,0,0,0,189.26,166.16Z"/><path class="cls-10" d="M197.23,159.48s0,5.71,4.34,6.84,6.78-2.75,9.85-.09,5.27,4.09,9.63,4.69,8.25-5.72,8.25-5.72l2.49-3.38v-2.59l-22.23-8Z"/><path class="cls-10" d="M122.23,234.55a3.82,3.82,0,0,1-2.14-.67l-37-25.37a3.81,3.81,0,0,1,.52-6.57,3.83,3.83,0,0,1,3.8.3l37,25.37a3.81,3.81,0,0,1-2.18,6.94Z"/><path class="cls-3" d="M59,430.74S29.26,453,24.51,450.3-2.78,419.4.29,417.48s20.3,7.39,20.3,7.39L42.93,410Z"/><path class="cls-3" d="M69.37,360.12s-35.21,21.39-40.08,18.37S3.15,345.71,6.74,343.88s21.31,8.48,21.31,8.48l26.18-14.13Z"/><path class="cls-17" d="M301.18,285.57s-33.41,26.22-41.91,21.16c-29.89-17.78-72.56-46.82-82.88-41.62-13.25,6.66-138.2,77.31-138.2,77.31l10.72,37.46s124-84.66,132.53-79.77,81.1,52.34,102.54,46.34C330.18,333.53,306.15,288.59,301.18,285.57Z"/><path class="cls-9" d="M298.32,288.63s-29.5,34.74-39.95,32.22c-36.75-8.84-90.1-25-99.94-17.09C145.79,313.91,28.61,417.27,28.61,417.27l21,33.25s112.64-116.66,123.07-114.3,100.74,28,122.37,16.15C341.68,326.94,304.44,290.17,298.32,288.63Z"/><path class="cls-10" d="M254.1,309.05s-2.54,8.75,2.06,11.06,50.07-21.58,50.18-24.45-3.09-8-3.09-8-31.25,17.84-37,19S254.1,309.05,254.1,309.05Z"/><path class="cls-21" d="M260.71,318.9l-3.3,1.73c-2,1-4.5-.85-5.66-4.14l-.37-1c-1.17-3.29-.54-6.83,1.41-7.84l3.3-1.73c2-1,4.5.84,5.67,4.14l.37,1C263.3,314.35,262.66,317.88,260.71,318.9Z"/><path class="cls-21" d="M291.11,269.44l-.34-.4a1,1,0,0,1-.13-.25c-1.36-2.72-28.81-50.68-37.55-57.59a17,17,0,0,0-13.42-3.6,11.81,11.81,0,0,0-8.44,5.83,7.75,7.75,0,0,0,.15,7.12.81.81,0,0,1,0,.81.82.82,0,0,1-.73.37.81.81,0,0,1-.68-.46,9.34,9.34,0,0,1-.15-8.57c1.66-3.33,5.34-5.9,9.6-6.71a18.78,18.78,0,0,1,14.74,3.92c3.86,3.06,11.41,13.77,22.52,31.82C281.07,249,285,255.66,287.5,260c4.8,8.28,4.79,8.33,4.7,8.7l-.11.49Z"/><path class="cls-21" d="M269,281.3a.85.85,0,0,1-.63-.29c-.15-.18-15.35-18.22-23.42-31a.8.8,0,0,1-.07-.84.81.81,0,0,1,1.44,0c8,12.66,23.15,30.61,23.3,30.79a.81.81,0,0,1,.12.87A.82.82,0,0,1,269,281.3Z"/><path class="cls-21" d="M254.24,283.24a6,6,0,0,1,2.2-8.2l39.93-23a6,6,0,0,1,8.19,2.2l12.52,21.67a6,6,0,0,1-2.2,8.19L275,307.11a6,6,0,0,1-8.19-2.2Z"/><path class="cls-4" d="M542,191.75a1.12,1.12,0,0,1-1-.69c-.13-.33-3.16-8.07-.09-12.83,1.39-2.18,3.77-3.36,7.06-3.51,11.87-.58,13.59-1,17.17-6.68a8.63,8.63,0,0,1,6.52-4.18c4.61-.51,10.19,2.17,15.3,7.32a1.09,1.09,0,0,1-.49,1.82,1.07,1.07,0,0,1-1.05-.29c-4.58-4.62-9.64-7.12-13.52-6.69a6.43,6.43,0,0,0-4.94,3.17c-4.23,6.74-7.16,7.13-18.9,7.69-2.59.13-4.35,1-5.35,2.52-2.46,3.8.26,10.79.29,10.86a1.08,1.08,0,0,1-.61,1.41A1.23,1.23,0,0,1,542,191.75Z"/><path class="cls-4" d="M532.83,175.22a1.09,1.09,0,0,1-1.09-1c0-.26-.51-6.66,7.25-12.22s17.61-.3,18-.07a1.09,1.09,0,0,1-1.06,1.9c-.09-.05-9-4.86-15.7-.07S533.9,174,533.91,174a1.14,1.14,0,0,1-.25.79,1.09,1.09,0,0,1-.74.39Z"/><path class="cls-4" d="M526.83,169.19a1.11,1.11,0,0,1-.86-.41c-.12-.17-3.11-4.09-.44-10.87s11.11-7.47,11.47-7.49a1.09,1.09,0,1,1,.16,2.18c-.12,0-7.44.6-9.61,6.12s.11,8.69.13,8.69a1.08,1.08,0,0,1-.18,1.53A1.15,1.15,0,0,1,526.83,169.19Z"/><path class="cls-1" d="M142.37,538.09A119.51,119.51,0,0,0,179,543.52a187.35,187.35,0,0,0,41.32-5l2.71-.62.15,0c7.2-1.63,15-3.4,22.81-5.63,2.64,1.13,5.2,2.07,7.47,2.82,12.7,4.28,27.58,6.18,45.48,5.91,21.85-.34,45.56-4.88,72.49-13.89,33.77-11.32,67.87-27.16,104.25-48.35,26.42-15.41,52.07-33.12,76.86-50.25q7.29-5.06,14.59-10.06a1.08,1.08,0,0,0-.11-1.92,1.08,1.08,0,0,0-1.12.14q-7.31,5-14.59,10c-24.76,17.11-50.38,34.8-76.73,50.16C438.37,498,404.41,513.7,370.78,525c-26.73,8.93-50.21,13.44-71.84,13.77-17.65.27-32.29-1.62-44.75-5.8-1.5-.49-3.13-1.08-4.83-1.74,13.71-4.19,27.17-9.93,37.14-19,3.75-3.41,5.78-7.33,5.87-11.32.1-3.83-1.63-7.62-5-11-9-9-28.3-8.75-41.85-3.92-12.71,4.54-20.54,12.6-21.49,22.11-1,10.48,8.9,17.92,18.87,22.69-7,1.91-13.91,3.48-20.36,4.94l-2.71.62c-29.81,6.76-54.94,6.67-76.82-.3a86.18,86.18,0,0,1-45.77-34.08c-17.34-25.69-24.06-62.67,0-87.38,21.48-22.07,54.5-27.32,72.27-28.48a146,146,0,0,1,14.94-.2,1.09,1.09,0,0,0,1-1.59,1.06,1.06,0,0,0-.92-.58,147.46,147.46,0,0,0-15.16.2c-18.08,1.19-51.7,6.55-73.69,29.13-24.91,25.59-18.08,63.7-.25,90.12A88.36,88.36,0,0,0,142.37,538.09ZM246.31,488a55.49,55.49,0,0,1,18.44-3.19h0c8.87,0,16.81,2.28,21.11,6.6,2.92,2.91,4.42,6.15,4.34,9.37-.07,3.4-1.86,6.77-5.16,9.78-10.28,9.38-24.53,15.13-38.87,19.29-10-4.39-20.92-11.53-19.92-21.57C227.11,499.67,234.42,492.28,246.31,488Z"/></g></g></svg>